<svg xmlns="http://www.w3.org/2000/svg" xmlns:xlink="http://www.w3.org/1999/xlink" width="50" zoomAndPan="magnify" viewBox="0 0 37.5 37.499999" height="50" preserveAspectRatio="xMidYMid meet" version="1.0"><path fill="#ef4754" d="M 3.367188 7.800781 C 3.367188 11.707031 3.796875 10.980469 3.800781 14.496094 C 3.800781 17.425781 3.703125 18.984375 3.585938 21.085938 C 3.484375 22.824219 3.242188 24.539062 3.355469 26.277344 C 3.511719 28.65625 3.113281 30.71875 4.417969 32.222656 C 5.867188 33.894531 8.292969 34.367188 9.988281 34.453125 C 11.6875 34.535156 15.128906 34.601562 16.816406 34.414062 C 21.195312 33.9375 23.972656 34.136719 28.375 34.3125 C 29.980469 34.378906 32.324219 34.757812 33.761719 33.414062 C 34.890625 32.355469 35.054688 31.0625 35.023438 28.429688 C 34.976562 24.953125 34.917969 22.28125 34.933594 18.804688 C 34.941406 17.480469 35.011719 16.03125 35.019531 14.703125 C 35.023438 13.632812 34.839844 11.367188 34.820312 10.296875 C 34.804688 9.300781 34.875 7.699219 34.761719 6.679688 C 34.296875 2.464844 27.988281 2.695312 24.585938 2.851562 C 20.664062 3.03125 21.726562 3.113281 17.820312 3.113281 C 16.734375 3.113281 14.917969 2.863281 12.847656 2.851562 C 10.105469 2.839844 8.902344 2.851562 7.273438 3.113281 C 4.925781 3.492188 3.214844 4.75 3.367188 7.800781 " fill-opacity="1" fill-rule="nonzero"/><path fill="#ffffff" d="M 27.976562 15.402344 C 28.109375 12.816406 28.214844 10.472656 27.917969 7.902344 C 27.871094 7.519531 27.789062 7.109375 27.511719 6.839844 C 27.125 6.472656 26.515625 6.503906 25.988281 6.566406 C 22.476562 6.976562 19.691406 7.160156 16.285156 8.089844 C 15.464844 8.3125 14.550781 8.632812 14.207031 9.410156 C 13.96875 9.957031 13.789062 11.644531 13.777344 12.242188 C 13.722656 14.839844 13.601562 16.246094 13.566406 18.203125 C 13.566406 18.226562 13.566406 18.25 13.566406 18.277344 C 13.558594 18.757812 13.558594 19.28125 13.5625 19.859375 C 13.5625 19.921875 13.5625 19.984375 13.566406 20.046875 C 13.570312 20.332031 13.574219 20.628906 13.582031 20.949219 C 13.582031 20.949219 13.582031 20.953125 13.582031 20.957031 C 13.582031 20.960938 13.582031 20.964844 13.582031 20.96875 C 13.59375 21.660156 13.511719 22.34375 13.25 22.917969 C 13.046875 23.371094 12.734375 23.757812 12.265625 24.023438 C 11.164062 24.640625 9.644531 24.335938 8.699219 25.175781 C 8.15625 25.660156 7.601562 26.882812 7.601562 27.914062 C 7.601562 29.285156 8.898438 30.457031 9.640625 30.644531 C 9.726562 30.664062 9.902344 30.703125 10.144531 30.734375 C 10.742188 30.8125 11.722656 30.859375 12.605469 30.558594 C 12.78125 30.5 12.953125 30.425781 13.117188 30.335938 C 14.355469 29.660156 14.816406 28.515625 15.035156 27.835938 C 15.066406 27.742188 15.09375 27.652344 15.117188 27.578125 C 15.417969 26.597656 15.101562 19.425781 15.234375 17.894531 C 15.34375 16.691406 15.207031 14.886719 16.015625 13.988281 C 16.515625 13.429688 18.410156 12.609375 19.140625 12.425781 C 22.265625 11.644531 23.101562 12 25.433594 12.25 C 25.582031 12.265625 25.742188 12.289062 25.839844 12.402344 C 25.929688 12.5 25.945312 12.644531 25.953125 12.777344 C 26.03125 13.847656 26.109375 14.921875 26.1875 15.992188 C 26.25 16.800781 26.148438 18.082031 26.152344 19.246094 C 26.15625 19.753906 26.109375 20.234375 25.910156 20.632812 C 25.789062 20.871094 25.613281 21.082031 25.363281 21.25 C 24.253906 21.988281 22.742188 21.90625 21.25 22.828125 C 20.738281 23.140625 20.125 24.191406 20.039062 24.785156 C 19.972656 25.246094 19.953125 25.671875 20.003906 26.070312 C 20.054688 26.46875 20.171875 26.839844 20.378906 27.191406 C 20.515625 27.425781 20.695312 27.648438 20.917969 27.867188 C 21.363281 28.300781 22.199219 28.480469 23.066406 28.484375 C 23.929688 28.488281 24.828125 28.316406 25.390625 28.050781 C 26.855469 27.367188 27.355469 26.019531 27.703125 24.214844 C 27.863281 23.378906 27.964844 22.53125 28 21.679688 C 28.082031 19.867188 27.882812 17.214844 27.976562 15.402344 Z M 27.976562 15.402344 " fill-opacity="1" fill-rule="nonzero"/><path fill="#010101" d="M 13.570312 34.925781 C 12.261719 34.925781 10.917969 34.890625 9.96875 34.84375 C 8.488281 34.769531 5.761719 34.363281 4.125 32.480469 C 3.042969 31.234375 3.027344 29.648438 3.011719 27.96875 C 3.007812 27.433594 3.003906 26.878906 2.964844 26.304688 C 2.882812 25.035156 2.984375 23.773438 3.085938 22.550781 C 3.125 22.054688 3.164062 21.5625 3.195312 21.0625 L 3.210938 20.773438 C 3.324219 18.820312 3.410156 17.28125 3.40625 14.496094 C 3.40625 12.816406 3.308594 12.136719 3.203125 11.414062 C 3.09375 10.640625 2.976562 9.839844 2.976562 7.8125 C 2.835938 4.914062 4.261719 3.203125 7.210938 2.730469 C 8.902344 2.457031 10.160156 2.453125 12.851562 2.460938 C 14.050781 2.46875 15.183594 2.554688 16.09375 2.625 C 16.78125 2.679688 17.371094 2.722656 17.820312 2.722656 C 20.269531 2.722656 20.765625 2.691406 21.75 2.621094 C 22.34375 2.578125 23.113281 2.527344 24.566406 2.460938 C 27.835938 2.308594 34.640625 1.996094 35.148438 6.636719 C 35.230469 7.359375 35.21875 8.351562 35.214844 9.226562 C 35.210938 9.617188 35.207031 9.984375 35.210938 10.289062 C 35.21875 10.765625 35.261719 11.484375 35.304688 12.222656 C 35.355469 13.148438 35.410156 14.101562 35.40625 14.703125 C 35.40625 15.367188 35.386719 16.0625 35.367188 16.757812 C 35.347656 17.453125 35.328125 18.144531 35.324219 18.808594 C 35.3125 21.46875 35.34375 23.613281 35.378906 26.101562 L 35.410156 28.421875 C 35.445312 31.144531 35.253906 32.550781 34.027344 33.699219 C 32.667969 34.976562 30.660156 34.84375 29.050781 34.742188 C 28.808594 34.726562 28.574219 34.714844 28.355469 34.703125 L 27.003906 34.648438 C 23.371094 34.492188 20.742188 34.382812 16.859375 34.804688 C 16.046875 34.890625 14.824219 34.925781 13.570312 34.925781 Z M 11.679688 3.238281 C 9.796875 3.238281 8.707031 3.277344 7.335938 3.5 C 4.804688 3.90625 3.636719 5.308594 3.757812 7.78125 L 3.757812 7.800781 C 3.757812 9.78125 3.867188 10.554688 3.976562 11.300781 C 4.078125 12.019531 4.1875 12.757812 4.1875 14.496094 C 4.191406 17.300781 4.101562 18.851562 3.988281 20.816406 L 3.972656 21.105469 C 3.945312 21.609375 3.902344 22.113281 3.863281 22.613281 C 3.761719 23.863281 3.664062 25.039062 3.746094 26.25 C 3.785156 26.839844 3.789062 27.410156 3.792969 27.960938 C 3.808594 29.558594 3.820312 30.9375 4.710938 31.964844 C 6.160156 33.632812 8.652344 33.996094 10.007812 34.0625 C 11.84375 34.152344 15.160156 34.203125 16.773438 34.027344 C 20.714844 33.597656 23.367188 33.710938 27.035156 33.867188 L 28.386719 33.921875 C 28.613281 33.933594 28.851562 33.945312 29.097656 33.964844 C 30.558594 34.058594 32.378906 34.171875 33.492188 33.128906 C 34.511719 32.175781 34.660156 30.964844 34.628906 28.433594 L 34.597656 26.113281 C 34.558594 23.621094 34.527344 21.472656 34.542969 18.804688 C 34.542969 18.136719 34.5625 17.4375 34.582031 16.738281 C 34.601562 16.046875 34.621094 15.359375 34.625 14.699219 C 34.628906 14.121094 34.574219 13.179688 34.519531 12.269531 C 34.476562 11.515625 34.433594 10.789062 34.425781 10.304688 C 34.421875 9.988281 34.425781 9.617188 34.429688 9.21875 C 34.4375 8.367188 34.445312 7.398438 34.371094 6.722656 C 33.941406 2.8125 27.632812 3.101562 24.601562 3.238281 C 23.160156 3.304688 22.394531 3.359375 21.804688 3.402344 C 20.800781 3.472656 20.296875 3.507812 17.820312 3.507812 C 17.339844 3.507812 16.734375 3.460938 16.035156 3.40625 C 15.089844 3.332031 14.019531 3.25 12.847656 3.242188 C 12.425781 3.242188 12.039062 3.238281 11.679688 3.238281 Z M 11.679688 3.238281 " fill-opacity="1" fill-rule="nonzero"/><path fill="#010101" d="M 11.046875 31.183594 C 10.203125 31.183594 9.558594 31.023438 9.546875 31.019531 C 8.59375 30.78125 7.210938 29.449219 7.210938 27.914062 C 7.210938 26.847656 7.761719 25.488281 8.441406 24.882812 C 9.050781 24.339844 9.824219 24.214844 10.570312 24.097656 C 11.125 24.007812 11.644531 23.921875 12.074219 23.683594 C 12.859375 23.238281 13.222656 22.351562 13.191406 20.964844 C 13.132812 18.574219 13.199219 17.175781 13.269531 15.554688 C 13.3125 14.605469 13.359375 13.582031 13.386719 12.234375 C 13.398438 11.644531 13.578125 9.875 13.851562 9.253906 C 14.25 8.351562 15.207031 7.980469 16.183594 7.714844 C 19.003906 6.945312 21.367188 6.683594 24.105469 6.382812 C 24.699219 6.320312 25.308594 6.253906 25.941406 6.175781 C 26.605469 6.101562 27.292969 6.089844 27.78125 6.558594 C 28.152344 6.914062 28.253906 7.414062 28.304688 7.859375 C 28.59375 10.363281 28.511719 12.570312 28.367188 15.421875 C 28.320312 16.332031 28.347656 17.488281 28.375 18.605469 C 28.402344 19.683594 28.433594 20.796875 28.390625 21.695312 C 28.351562 22.5625 28.25 23.4375 28.085938 24.289062 C 27.710938 26.222656 27.140625 27.664062 25.554688 28.40625 C 24.292969 28.996094 21.671875 29.148438 20.644531 28.144531 C 19.742188 27.269531 19.4375 26.214844 19.652344 24.726562 C 19.75 24.046875 20.410156 22.886719 21.042969 22.496094 C 21.871094 21.984375 22.703125 21.761719 23.4375 21.566406 C 24.097656 21.390625 24.667969 21.242188 25.144531 20.921875 C 25.589844 20.628906 25.769531 20.140625 25.761719 19.25 C 25.761719 18.757812 25.777344 18.246094 25.792969 17.757812 C 25.8125 17.097656 25.832031 16.472656 25.800781 16.019531 L 25.5625 12.804688 C 25.5625 12.769531 25.554688 12.675781 25.542969 12.648438 C 25.546875 12.660156 25.503906 12.648438 25.394531 12.636719 C 24.988281 12.59375 24.625 12.546875 24.289062 12.503906 C 22.703125 12.300781 21.746094 12.175781 19.234375 12.804688 C 18.480469 12.992188 16.714844 13.796875 16.304688 14.25 C 15.765625 14.847656 15.714844 16.019531 15.671875 17.054688 C 15.660156 17.363281 15.648438 17.660156 15.621094 17.929688 C 15.570312 18.542969 15.589844 20.136719 15.613281 21.824219 C 15.65625 24.984375 15.671875 27.101562 15.488281 27.691406 C 15.28125 28.367188 14.828125 29.847656 13.304688 30.675781 C 12.578125 31.074219 11.742188 31.183594 11.046875 31.183594 Z M 26.539062 6.917969 C 26.375 6.917969 26.203125 6.933594 26.03125 6.953125 C 25.398438 7.027344 24.785156 7.09375 24.191406 7.160156 C 21.484375 7.457031 19.148438 7.714844 16.386719 8.46875 C 15.597656 8.683594 14.832031 8.964844 14.566406 9.570312 C 14.359375 10.03125 14.179688 11.625 14.167969 12.25 C 14.140625 13.605469 14.09375 14.636719 14.050781 15.589844 C 13.976562 17.195312 13.914062 18.582031 13.972656 20.945312 C 14.011719 22.625 13.5 23.773438 12.457031 24.363281 C 11.90625 24.671875 11.289062 24.769531 10.695312 24.867188 C 10.027344 24.972656 9.398438 25.074219 8.960938 25.464844 C 8.5 25.871094 7.992188 26.976562 7.992188 27.910156 C 7.992188 29.078125 9.136719 30.113281 9.734375 30.265625 C 10.214844 30.382812 11.828125 30.59375 12.929688 29.992188 C 14.175781 29.3125 14.550781 28.09375 14.730469 27.503906 C 14.902344 26.945312 14.863281 23.988281 14.832031 21.832031 C 14.808594 20.050781 14.789062 18.511719 14.84375 17.859375 C 14.867188 17.601562 14.878906 17.316406 14.894531 17.019531 C 14.941406 15.855469 14.996094 14.535156 15.726562 13.726562 C 16.328125 13.058594 18.351562 12.222656 19.046875 12.046875 C 21.703125 11.382812 22.773438 11.523438 24.390625 11.730469 C 24.71875 11.773438 25.074219 11.816406 25.476562 11.859375 C 25.636719 11.875 25.929688 11.910156 26.136719 12.140625 C 26.316406 12.34375 26.332031 12.597656 26.34375 12.746094 L 26.578125 15.964844 C 26.617188 16.453125 26.59375 17.101562 26.574219 17.78125 C 26.558594 18.261719 26.542969 18.765625 26.542969 19.246094 C 26.550781 20.027344 26.441406 20.996094 25.578125 21.570312 C 24.992188 21.960938 24.335938 22.136719 23.640625 22.320312 C 22.921875 22.511719 22.183594 22.707031 21.453125 23.160156 C 21.066406 23.398438 20.5 24.324219 20.425781 24.835938 C 20.246094 26.085938 20.46875 26.882812 21.1875 27.585938 C 21.925781 28.304688 24.226562 28.164062 25.226562 27.695312 C 26.515625 27.09375 26.980469 25.890625 27.320312 24.140625 C 27.476562 23.324219 27.574219 22.492188 27.613281 21.660156 C 27.652344 20.789062 27.621094 19.6875 27.597656 18.625 C 27.566406 17.492188 27.539062 16.320312 27.585938 15.378906 C 27.730469 12.570312 27.8125 10.390625 27.527344 7.949219 C 27.492188 7.640625 27.429688 7.304688 27.238281 7.121094 C 27.078125 6.964844 26.824219 6.917969 26.539062 6.917969 Z M 26.539062 6.917969 " fill-opacity="1" fill-rule="nonzero"/></svg>