<svg xmlns="http://www.w3.org/2000/svg" xmlns:xlink="http://www.w3.org/1999/xlink" width="100" zoomAndPan="magnify" viewBox="0 0 75 74.999997" height="100" preserveAspectRatio="xMidYMid meet" version="1.0"><path fill="#ef4754" d="M 6.734375 15.605469 C 6.734375 23.417969 7.589844 21.960938 7.597656 28.992188 C 7.605469 34.855469 7.40625 37.96875 7.167969 42.171875 C 6.96875 45.652344 6.484375 49.078125 6.714844 52.554688 C 7.027344 57.3125 6.226562 61.441406 8.835938 64.449219 C 11.738281 67.785156 16.585938 68.738281 19.976562 68.90625 C 23.371094 69.074219 30.253906 69.199219 33.632812 68.832031 C 42.390625 67.875 47.945312 68.273438 56.746094 68.628906 C 59.960938 68.757812 64.652344 69.515625 67.523438 66.828125 C 69.785156 64.710938 70.109375 62.125 70.042969 56.859375 C 69.953125 49.910156 69.835938 44.5625 69.871094 37.613281 C 69.882812 34.957031 70.023438 32.0625 70.035156 29.40625 C 70.046875 27.261719 69.675781 22.734375 69.640625 20.59375 C 69.609375 18.601562 69.75 15.398438 69.523438 13.363281 C 68.59375 4.929688 55.972656 5.386719 49.167969 5.699219 C 41.324219 6.058594 43.453125 6.230469 35.640625 6.230469 C 33.46875 6.230469 29.839844 5.726562 25.699219 5.707031 C 20.210938 5.679688 17.804688 5.703125 14.546875 6.230469 C 9.855469 6.984375 6.433594 9.496094 6.734375 15.605469 " fill-opacity="1" fill-rule="nonzero"/><path fill="#ffffff" d="M 55.953125 30.804688 C 56.21875 25.636719 56.429688 20.945312 55.832031 15.808594 C 55.742188 15.039062 55.578125 14.21875 55.019531 13.679688 C 54.25 12.941406 53.035156 13.007812 51.972656 13.132812 C 44.957031 13.957031 39.382812 14.320312 32.570312 16.179688 C 30.929688 16.628906 29.101562 17.265625 28.414062 18.820312 C 27.933594 19.914062 27.578125 23.289062 27.554688 24.480469 C 27.445312 29.679688 27.203125 32.488281 27.136719 36.402344 C 27.132812 36.453125 27.132812 36.5 27.132812 36.550781 C 27.117188 37.519531 27.113281 38.558594 27.125 39.71875 C 27.125 39.839844 27.128906 39.96875 27.128906 40.09375 C 27.136719 40.667969 27.144531 41.257812 27.160156 41.898438 C 27.160156 41.902344 27.160156 41.90625 27.160156 41.910156 C 27.160156 41.917969 27.160156 41.929688 27.160156 41.9375 C 27.191406 43.320312 27.023438 44.683594 26.5 45.835938 C 26.089844 46.738281 25.472656 47.515625 24.527344 48.042969 C 22.328125 49.28125 19.285156 48.667969 17.398438 50.347656 C 16.3125 51.320312 15.203125 53.761719 15.203125 55.824219 C 15.203125 55.824219 15.203125 55.824219 15.203125 55.828125 C 15.203125 58.574219 17.792969 60.914062 19.28125 61.289062 C 19.453125 61.328125 19.808594 61.402344 20.285156 61.464844 C 21.480469 61.625 23.441406 61.714844 25.207031 61.117188 C 25.5625 60.996094 25.90625 60.851562 26.234375 60.671875 C 28.714844 59.320312 29.632812 57.03125 30.070312 55.675781 C 30.132812 55.480469 30.183594 55.304688 30.230469 55.15625 C 30.835938 53.195312 30.199219 38.855469 30.46875 35.789062 C 30.6875 33.382812 30.410156 29.777344 32.027344 27.976562 C 33.03125 26.863281 36.820312 25.21875 38.277344 24.851562 C 44.527344 23.289062 46.203125 24 50.867188 24.496094 C 51.164062 24.53125 51.484375 24.578125 51.683594 24.800781 C 51.859375 25 51.886719 25.285156 51.90625 25.550781 C 52.0625 27.695312 52.21875 29.839844 52.378906 31.984375 C 52.496094 33.601562 52.292969 36.167969 52.304688 38.496094 C 52.3125 39.507812 52.21875 40.46875 51.820312 41.265625 C 51.578125 41.742188 51.226562 42.160156 50.722656 42.496094 C 48.503906 43.976562 45.484375 43.808594 42.496094 45.65625 C 41.480469 46.285156 40.246094 48.382812 40.078125 49.570312 C 39.945312 50.492188 39.90625 51.347656 40.007812 52.144531 C 40.105469 52.941406 40.34375 53.683594 40.757812 54.382812 C 41.03125 54.851562 41.386719 55.300781 41.832031 55.734375 C 42.722656 56.605469 44.398438 56.960938 46.128906 56.96875 C 47.863281 56.976562 49.652344 56.632812 50.78125 56.105469 C 53.714844 54.730469 54.707031 52.039062 55.402344 48.433594 C 55.726562 46.757812 55.925781 45.0625 56.003906 43.359375 C 56.164062 39.734375 55.765625 34.429688 55.953125 30.804688 Z M 55.953125 30.804688 " fill-opacity="1" fill-rule="nonzero"/><path fill="#010101" d="M 27.136719 69.851562 C 24.523438 69.851562 21.839844 69.78125 19.9375 69.683594 C 16.976562 69.539062 11.519531 68.730469 8.246094 64.960938 C 6.085938 62.472656 6.054688 59.296875 6.027344 55.9375 C 6.015625 54.867188 6.007812 53.757812 5.933594 52.609375 C 5.765625 50.074219 5.96875 47.546875 6.167969 45.101562 C 6.25 44.109375 6.328125 43.121094 6.386719 42.125 L 6.421875 41.542969 C 6.644531 37.640625 6.820312 34.558594 6.816406 28.992188 C 6.8125 25.632812 6.617188 24.273438 6.40625 22.828125 C 6.183594 21.28125 5.953125 19.683594 5.953125 15.625 C 5.671875 9.828125 8.523438 6.410156 14.421875 5.460938 C 17.804688 4.910156 20.320312 4.90625 25.703125 4.921875 C 28.101562 4.9375 30.367188 5.109375 32.191406 5.25 C 33.558594 5.355469 34.742188 5.449219 35.640625 5.449219 C 40.539062 5.449219 41.53125 5.378906 43.5 5.242188 C 44.6875 5.15625 46.226562 5.050781 49.132812 4.917969 C 55.675781 4.613281 69.277344 3.996094 70.300781 13.273438 C 70.460938 14.722656 70.441406 16.703125 70.425781 18.453125 C 70.421875 19.230469 70.414062 19.964844 70.421875 20.582031 C 70.4375 21.535156 70.519531 22.964844 70.605469 24.449219 C 70.710938 26.296875 70.820312 28.203125 70.816406 29.40625 C 70.808594 30.738281 70.769531 32.125 70.734375 33.515625 C 70.695312 34.902344 70.65625 36.289062 70.648438 37.617188 C 70.621094 42.933594 70.6875 47.230469 70.757812 52.203125 L 70.824219 56.847656 C 70.890625 62.289062 70.507812 65.101562 68.058594 67.398438 C 65.335938 69.949219 61.324219 69.691406 58.101562 69.488281 C 57.617188 69.457031 57.152344 69.425781 56.714844 69.410156 L 54.007812 69.296875 C 46.738281 68.984375 41.484375 68.761719 33.71875 69.609375 C 32.09375 69.785156 29.648438 69.851562 27.136719 69.851562 Z M 23.363281 6.480469 C 19.597656 6.480469 17.410156 6.558594 14.671875 7 C 9.609375 7.8125 7.269531 10.617188 7.515625 15.566406 L 7.515625 15.601562 C 7.515625 19.5625 7.738281 21.109375 7.953125 22.601562 C 8.160156 24.035156 8.375 25.515625 8.375 28.988281 C 8.382812 34.601562 8.203125 37.703125 7.976562 41.632812 L 7.945312 42.210938 C 7.886719 43.21875 7.804688 44.222656 7.726562 45.226562 C 7.523438 47.722656 7.332031 50.078125 7.492188 52.5 C 7.566406 53.679688 7.578125 54.820312 7.585938 55.917969 C 7.617188 59.117188 7.640625 61.878906 9.425781 63.933594 C 12.320312 67.265625 17.300781 67.988281 20.015625 68.125 C 23.6875 68.304688 30.320312 68.40625 33.546875 68.054688 C 41.429688 67.195312 46.734375 67.421875 54.070312 67.734375 L 56.773438 67.84375 C 57.222656 67.863281 57.699219 67.894531 58.195312 67.925781 C 61.121094 68.113281 64.757812 68.34375 66.984375 66.257812 C 69.019531 64.351562 69.320312 61.929688 69.257812 56.867188 L 69.191406 52.226562 C 69.117188 47.242188 69.054688 42.941406 69.082031 37.605469 C 69.089844 36.269531 69.128906 34.871094 69.164062 33.472656 C 69.203125 32.09375 69.242188 30.71875 69.25 29.398438 C 69.253906 28.246094 69.148438 26.359375 69.039062 24.539062 C 68.953125 23.03125 68.871094 21.578125 68.855469 20.605469 C 68.84375 19.980469 68.851562 19.230469 68.859375 18.4375 C 68.875 16.734375 68.890625 14.796875 68.742188 13.445312 C 67.882812 5.625 55.265625 6.203125 49.203125 6.476562 C 46.316406 6.609375 44.785156 6.71875 43.609375 6.800781 C 41.601562 6.941406 40.59375 7.011719 35.640625 7.011719 C 34.679688 7.011719 33.46875 6.917969 32.070312 6.8125 C 30.179688 6.664062 28.035156 6.5 25.695312 6.488281 C 24.851562 6.484375 24.078125 6.480469 23.363281 6.480469 Z M 23.363281 6.480469 " fill-opacity="1" fill-rule="nonzero"/><path fill="#010101" d="M 22.089844 62.367188 C 20.402344 62.367188 19.117188 62.046875 19.09375 62.042969 C 17.1875 61.5625 14.421875 58.902344 14.421875 55.824219 C 14.421875 53.691406 15.523438 50.976562 16.882812 49.765625 C 18.097656 48.683594 19.648438 48.433594 21.144531 48.191406 C 22.246094 48.015625 23.289062 47.84375 24.148438 47.363281 C 25.714844 46.480469 26.449219 44.703125 26.382812 41.929688 C 26.269531 37.148438 26.394531 34.347656 26.539062 31.109375 C 26.625 29.214844 26.71875 27.164062 26.773438 24.464844 C 26.796875 23.289062 27.152344 19.75 27.703125 18.507812 C 28.5 16.703125 30.414062 15.960938 32.363281 15.425781 C 38.007812 13.890625 42.734375 13.371094 48.210938 12.769531 C 49.398438 12.640625 50.617188 12.503906 51.882812 12.355469 C 53.214844 12.203125 54.585938 12.179688 55.5625 13.117188 C 56.300781 13.828125 56.503906 14.832031 56.609375 15.71875 C 57.191406 20.722656 57.027344 25.140625 56.734375 30.839844 C 56.636719 32.664062 56.695312 34.976562 56.753906 37.214844 C 56.808594 39.367188 56.863281 41.59375 56.785156 43.394531 C 56.707031 45.128906 56.5 46.875 56.171875 48.578125 C 55.425781 52.445312 54.28125 55.328125 51.109375 56.8125 C 48.582031 57.992188 43.34375 58.296875 41.285156 56.289062 C 39.488281 54.539062 38.875 52.429688 39.304688 49.453125 C 39.5 48.097656 40.820312 45.773438 42.085938 44.988281 C 43.742188 43.96875 45.40625 43.523438 46.875 43.132812 C 48.195312 42.78125 49.335938 42.480469 50.289062 41.84375 C 51.179688 41.253906 51.535156 40.285156 51.527344 38.5 C 51.523438 37.515625 51.554688 36.492188 51.585938 35.515625 C 51.625 34.191406 51.664062 32.941406 51.601562 32.039062 L 51.128906 25.605469 C 51.125 25.535156 51.109375 25.351562 51.082031 25.296875 C 51.09375 25.324219 51.011719 25.296875 50.785156 25.273438 C 49.972656 25.183594 49.25 25.09375 48.578125 25.007812 C 45.40625 24.601562 43.492188 24.355469 38.46875 25.609375 C 36.960938 25.988281 33.429688 27.589844 32.609375 28.5 C 31.53125 29.699219 31.433594 32.039062 31.34375 34.105469 C 31.320312 34.726562 31.292969 35.320312 31.246094 35.859375 C 31.140625 37.082031 31.179688 40.269531 31.226562 43.644531 C 31.3125 49.96875 31.34375 54.203125 30.976562 55.386719 C 30.5625 56.734375 29.65625 59.695312 26.609375 61.355469 C 25.160156 62.148438 23.488281 62.367188 22.089844 62.367188 Z M 53.074219 13.835938 C 52.75 13.835938 52.410156 13.867188 52.066406 13.90625 C 50.796875 14.054688 49.570312 14.191406 48.378906 14.320312 C 42.972656 14.914062 38.300781 15.429688 32.773438 16.933594 C 31.199219 17.367188 29.664062 17.933594 29.132812 19.140625 C 28.722656 20.0625 28.359375 23.253906 28.335938 24.496094 C 28.277344 27.210938 28.1875 29.273438 28.101562 31.179688 C 27.957031 34.390625 27.832031 37.164062 27.941406 41.890625 C 28.023438 45.246094 27 47.546875 24.910156 48.722656 C 23.808594 49.34375 22.578125 49.539062 21.390625 49.734375 C 20.054688 49.945312 18.796875 50.148438 17.917969 50.929688 C 17.003906 51.746094 15.984375 53.957031 15.984375 55.824219 C 15.984375 58.15625 18.273438 60.226562 19.472656 60.527344 C 20.429688 60.769531 23.65625 61.1875 25.863281 59.984375 C 28.347656 58.628906 29.097656 56.183594 29.460938 55.011719 C 29.804688 53.886719 29.726562 47.980469 29.664062 43.664062 C 29.617188 40.101562 29.574219 37.023438 29.6875 35.722656 L 29.6875 35.71875 C 29.734375 35.203125 29.757812 34.632812 29.785156 34.039062 C 29.882812 31.710938 29.996094 29.070312 31.449219 27.453125 C 32.65625 26.117188 36.703125 24.441406 38.089844 24.09375 C 43.40625 22.769531 45.546875 23.046875 48.777344 23.457031 C 49.441406 23.542969 50.152344 23.632812 50.953125 23.71875 C 51.273438 23.753906 51.859375 23.816406 52.269531 24.285156 C 52.628906 24.691406 52.664062 25.195312 52.6875 25.492188 L 53.160156 31.929688 C 53.230469 32.910156 53.191406 34.199219 53.148438 35.566406 C 53.117188 36.523438 53.085938 37.527344 53.089844 38.488281 C 53.097656 40.050781 52.886719 41.992188 51.15625 43.144531 C 49.988281 43.921875 48.671875 44.273438 47.277344 44.644531 C 45.847656 45.023438 44.367188 45.414062 42.910156 46.316406 C 42.132812 46.796875 41 48.648438 40.851562 49.675781 C 40.492188 52.171875 40.933594 53.761719 42.378906 55.171875 C 43.855469 56.609375 48.453125 56.328125 50.449219 55.394531 C 53.027344 54.1875 53.964844 51.777344 54.636719 48.28125 C 54.953125 46.648438 55.148438 44.984375 55.222656 43.320312 C 55.300781 41.578125 55.246094 39.378906 55.191406 37.25 C 55.132812 34.984375 55.074219 32.644531 55.171875 30.757812 C 55.460938 25.136719 55.625 20.78125 55.054688 15.894531 C 54.984375 15.28125 54.859375 14.609375 54.476562 14.242188 C 54.15625 13.933594 53.648438 13.835938 53.074219 13.835938 Z M 53.074219 13.835938 " fill-opacity="1" fill-rule="nonzero"/></svg>