<svg xmlns="http://www.w3.org/2000/svg" xmlns:xlink="http://www.w3.org/1999/xlink" width="50" zoomAndPan="magnify" viewBox="0 0 37.5 37.499999" height="50" preserveAspectRatio="xMidYMid meet" version="1.0"><path fill="#8bc34a" d="M 18.75 3.125 C 10.097656 3.125 3.125 10.09375 3.125 18.75 C 3.125 27.402344 10.097656 34.375 18.75 34.375 C 27.402344 34.375 34.375 27.402344 34.375 18.75 C 34.375 10.09375 27.402344 3.125 18.75 3.125 Z M 18.75 3.125 " fill-opacity="1" fill-rule="nonzero"/><path fill="#ffffff" d="M 24.800781 26.496094 C 24.574219 26.496094 24.34375 26.382812 24.117188 26.265625 C 21.945312 25.011719 19.320312 24.328125 16.46875 24.328125 C 14.867188 24.328125 13.269531 24.554688 11.785156 24.898438 C 11.558594 24.898438 11.214844 25.011719 11.101562 25.011719 C 10.53125 25.011719 10.1875 24.554688 10.1875 24.097656 C 10.1875 23.527344 10.53125 23.183594 10.988281 23.070312 C 12.8125 22.613281 14.640625 22.386719 16.578125 22.386719 C 19.777344 22.386719 22.746094 23.183594 25.257812 24.667969 C 25.601562 24.898438 25.828125 25.125 25.828125 25.695312 C 25.714844 26.152344 25.257812 26.496094 24.800781 26.496094 Z M 26.398438 22.613281 C 26.058594 22.613281 25.828125 22.5 25.601562 22.386719 C 23.203125 20.902344 19.890625 19.984375 16.125 19.984375 C 14.296875 19.984375 12.585938 20.214844 11.328125 20.558594 C 10.988281 20.671875 10.871094 20.671875 10.644531 20.671875 C 9.960938 20.671875 9.503906 20.101562 9.503906 19.53125 C 9.503906 18.84375 9.84375 18.5 10.414062 18.273438 C 12.128906 17.816406 13.839844 17.476562 16.238281 17.476562 C 20.121094 17.476562 23.886719 18.390625 26.855469 20.214844 C 27.3125 20.441406 27.542969 20.898438 27.542969 21.355469 C 27.542969 22.042969 27.085938 22.613281 26.398438 22.613281 Z M 28.226562 18.046875 C 27.886719 18.046875 27.769531 17.933594 27.429688 17.820312 C 24.6875 16.21875 20.578125 15.304688 16.582031 15.304688 C 14.523438 15.304688 12.472656 15.535156 10.644531 15.992188 C 10.414062 15.992188 10.1875 16.105469 9.84375 16.105469 C 9.046875 16.21875 8.476562 15.535156 8.476562 14.734375 C 8.476562 13.9375 8.933594 13.480469 9.503906 13.363281 C 11.671875 12.679688 13.957031 12.449219 16.582031 12.449219 C 20.921875 12.449219 25.488281 13.363281 28.914062 15.304688 C 29.367188 15.535156 29.710938 15.992188 29.710938 16.675781 C 29.597656 17.476562 29.027344 18.046875 28.226562 18.046875 Z M 28.226562 18.046875 " fill-opacity="1" fill-rule="nonzero"/></svg>