<svg xmlns="http://www.w3.org/2000/svg" xmlns:xlink="http://www.w3.org/1999/xlink" width="100" zoomAndPan="magnify" viewBox="0 0 75 74.999997" height="100" preserveAspectRatio="xMidYMid meet" version="1.0"><path fill="#8bc34a" d="M 37.5 6.25 C 20.195312 6.25 6.25 20.191406 6.25 37.5 C 6.25 54.808594 20.195312 68.75 37.5 68.75 C 54.808594 68.75 68.75 54.808594 68.75 37.5 C 68.75 20.191406 54.808594 6.25 37.5 6.25 Z M 37.5 6.25 " fill-opacity="1" fill-rule="nonzero"/><path fill="#ffffff" d="M 49.605469 52.992188 C 49.148438 52.992188 48.691406 52.765625 48.234375 52.535156 C 43.894531 50.023438 38.640625 48.65625 32.933594 48.65625 C 29.734375 48.65625 26.539062 49.109375 23.570312 49.796875 C 23.113281 49.796875 22.429688 50.023438 22.199219 50.023438 C 21.058594 50.023438 20.375 49.109375 20.375 48.195312 C 20.375 47.054688 21.058594 46.367188 21.972656 46.140625 C 25.625 45.226562 29.28125 44.773438 33.160156 44.773438 C 39.554688 44.773438 45.492188 46.367188 50.515625 49.339844 C 51.203125 49.796875 51.660156 50.253906 51.660156 51.394531 C 51.429688 52.308594 50.515625 52.992188 49.605469 52.992188 Z M 52.800781 45.226562 C 52.117188 45.226562 51.660156 45 51.203125 44.773438 C 46.410156 41.804688 39.785156 39.972656 32.25 39.972656 C 28.59375 39.972656 25.171875 40.429688 22.65625 41.117188 C 21.972656 41.34375 21.742188 41.34375 21.289062 41.34375 C 19.917969 41.34375 19.003906 40.203125 19.003906 39.0625 C 19.003906 37.691406 19.6875 37.003906 20.828125 36.550781 C 24.253906 35.636719 27.679688 34.953125 32.476562 34.953125 C 40.242188 34.953125 47.777344 36.78125 53.714844 40.429688 C 54.628906 40.886719 55.085938 41.800781 55.085938 42.714844 C 55.085938 44.085938 54.171875 45.226562 52.800781 45.226562 Z M 56.457031 36.09375 C 55.773438 36.09375 55.542969 35.867188 54.859375 35.640625 C 49.375 32.441406 41.15625 30.613281 33.164062 30.613281 C 29.050781 30.613281 24.941406 31.070312 21.289062 31.984375 C 20.828125 31.984375 20.375 32.210938 19.6875 32.210938 C 18.089844 32.441406 16.949219 31.070312 16.949219 29.472656 C 16.949219 27.875 17.863281 26.960938 19.003906 26.730469 C 23.34375 25.359375 27.910156 24.902344 33.164062 24.902344 C 41.839844 24.902344 50.976562 26.730469 57.828125 30.613281 C 58.738281 31.070312 59.421875 31.984375 59.421875 33.351562 C 59.195312 34.953125 58.054688 36.09375 56.457031 36.09375 Z M 56.457031 36.09375 " fill-opacity="1" fill-rule="nonzero"/></svg>